<svg xmlns="http://www.w3.org/2000/svg" viewBox="0 0 479.62 206"><title>casium_logo_text</title><g id="Layer_1" data-name="Layer 1"><path d="M208,126.9c3.82,3,6,7.44,6.74,13.48h-2.41c-.7-5.23-2.71-9.05-5.93-11.67-3.42-2.62-7.64-3.92-12.87-3.92a18,18,0,0,0-15.19,7.44c-3.62,4.63-5.43,10.76-5.43,18.21q0,10.86,5.13,17.5c3.62,4.53,8.75,6.84,15.39,6.84,10.86,0,17.3-5.73,19.21-17.1h2.41c-1,6.24-3.32,11.06-7,14.48s-8.55,5-14.59,5c-7.44,0-13.28-2.62-17.3-7.85-3.82-4.83-5.63-11.06-5.63-18.91s1.91-14.48,5.93-19.71c4.22-5.63,10-8.35,17.1-8.35Q202.28,122.37,208,126.9Z"/><path d="M261.23,128.41c2.92,3.42,4.43,7.95,4.43,13.68v33.7h-2.41v-12a31.9,31.9,0,0,1-8.85,8.75,27.87,27.87,0,0,1-15,4.63c-4.83,0-8.85-1.21-11.87-3.62a12.09,12.09,0,0,1-4.93-10.16c0-6,2.51-10.46,7.64-13.18,4.22-2.41,10.46-3.62,18.51-3.62l14.48-.1v-3.82c0-12-5.93-17.9-17.6-17.9-4.83,0-9,1-12.17,3.22a14.71,14.71,0,0,0-6.64,9.76l-2.31-.2a17.16,17.16,0,0,1,7.34-11.37c3.62-2.62,8.25-3.82,13.78-3.82C252.58,122.37,257.81,124.39,261.23,128.41ZM248.76,149c-15.89,0-23.74,4.83-23.74,14.48a9.75,9.75,0,0,0,4,8.25c2.62,2,6.24,3,10.66,3,5.83,0,11.27-2.21,16.29-6.44,4.83-4,7.24-8.15,7.24-12.17v-7.24Z"/><path d="M314.24,138.06h-2.41c-.7-4.22-2.31-7.34-4.83-9.56-3-2.51-7.14-3.72-12.37-3.72a18.12,18.12,0,0,0-11,3.12c-3,2-4.43,4.43-4.43,7.44,0,3.22,1.61,5.73,5,7.75,2.11,1.21,5.93,2.62,11.37,4,6.64,1.71,11.27,3.32,13.68,4.73,4.22,2.41,6.34,5.73,6.34,10.06,0,10.16-6.54,15.29-19.61,15.29-12.67,0-19.61-5.83-20.82-17.4h2.51c.6,5.33,2.41,9.25,5.63,11.67q4.22,3.32,12.67,3.32c11.37,0,17.1-4.33,17.1-12.87,0-3.62-1.91-6.34-5.53-8.25-1.91-1-6-2.41-12.47-4.12-6-1.61-10.26-3.22-12.57-4.63-3.82-2.31-5.73-5.53-5.73-9.56,0-3.82,1.81-7,5.43-9.46a20.85,20.85,0,0,1,12.37-3.52Q311.83,122.37,314.24,138.06Z"/><path d="M327.24,123.78v52h-2.41v-52Z"/><path d="M340.85,123.78v31.89c0,6.14,1.31,10.86,3.92,14.08,2.82,3.32,7,5,12.88,5a17,17,0,0,0,12.77-5.43c3.42-3.62,5.13-8.35,5.13-14.08V123.78H378v52h-2.41V165.63c-3.82,7.64-9.76,11.57-17.9,11.57-12.87,0-19.21-7.24-19.21-21.53V123.78Z"/><path d="M424.94,134.54a18.83,18.83,0,0,1,6.54-8.85,15.64,15.64,0,0,1,10-3.32c5.53,0,9.76,1.61,12.77,4.93s4.53,8.15,4.53,14.48v34h-2.41v-34c0-5.43-1.21-9.56-3.42-12.37-2.51-3.12-6.34-4.63-11.47-4.63a14.1,14.1,0,0,0-11.06,4.93,16.89,16.89,0,0,0-4.43,12.07v34h-2.51v-34c0-11.37-4.93-17-14.79-17a13.84,13.84,0,0,0-11.06,5.33A18.91,18.91,0,0,0,393,143.19v32.59h-2.41v-52H393v9.56c3.32-7.34,8.55-11,15.69-11C417.3,122.37,422.73,126.4,424.94,134.54Z"/></g></svg>
