<svg id="Layer_1" data-name="Layer 1" xmlns="http://www.w3.org/2000/svg" viewBox="0 0 565.34 611">
	<title>Logo</title>
    <desc>Logo</desc>
    <defs></defs>
	<path class="fill" d="M240.6,208.14,170.27,390h42.53l11.45-31.35h81.23L316.92,390h42.25L289.12,208.14Zm-6,116.94,30.26-83.41,30,83.41Z"></path>
	<polygon class="fill" points="346.18 208.14 346.18 297.75 383.07 389.96 383.07 208.14 346.18 208.14"></polygon>
	<path class="fill" d="M517.88,154.5,258.94,5,0,154.5v299L258.94,603,517.88,453.5ZM57.53,452.77,270.74,577.44l-9.45,5.42L57.53,466.72ZM302.77,559.08,57.53,414.45V182.38L291,44.83l208.07,119.6V446.6Z"></path>
	<polygon class="fill" points="295.06 3.78 281.99 11.32 291.99 17.1 295.06 15.33 546.76 160.65 546.76 451.29 295.06 596.61 290.72 594.1 280.72 599.88 295.06 608.15 556.76 457.06 556.76 154.87 295.06 3.78"></polygon>
</svg>
